<?xml version="1.0" encoding="utf-8"?>
<!-- Generator: Adobe Illustrator 24.0.0, SVG Export Plug-In . SVG Version: 6.00 Build 0)  -->
<svg version="1.1" id="图层_1" xmlns="http://www.w3.org/2000/svg" xmlns:xlink="http://www.w3.org/1999/xlink" x="0px" y="0px"
	 viewBox="0 0 40 40" style="enable-background:new 0 0 40 40;" xml:space="preserve">
<style type="text/css">
	.st0{fill:#FFFFFF;}
</style>
<title>扩展插件配图设计</title>
<g id="_1._usb">
	<path class="st0" d="M27.6,10.1L12.5,10c-5.5,0-9.9,4.4-10,9.9l0,0c0,5.5,4.4,9.9,9.9,10L27.5,30c5.5,0,9.9-4.4,10-9.9l0,0
		C37.5,14.6,33.1,10.2,27.6,10.1z M33.1,20.1c0,3.2-2.6,5.8-5.8,5.8l-14.8-0.1c-3.2,0-5.8-2.6-5.8-5.8l0,0c0-3.2,2.6-5.8,5.8-5.8
		l14.8,0.1C30.5,14.3,33.1,16.9,33.1,20.1z"/>
	<circle class="st0" cx="13.6" cy="20" r="2"/>
	<circle class="st0" cx="26.4" cy="20" r="2"/>
</g>
</svg>
