<?xml version="1.0" encoding="utf-8"?>
<!-- Generator: Adobe Illustrator 24.0.0, SVG Export Plug-In . SVG Version: 6.00 Build 0)  -->
<svg version="1.1" id="图层_1" xmlns="http://www.w3.org/2000/svg" xmlns:xlink="http://www.w3.org/1999/xlink" x="0px" y="0px"
	 viewBox="0 0 40 40" style="enable-background:new 0 0 40 40;" xml:space="preserve">
<title>扩展插件配图设计</title>
<g id="_1._usb">
	<path d="M28.5,9L11.6,8.9c-6.1,0-11.1,4.9-11.1,11l0,0C0.5,26,5.4,31,11.5,31l16.9,0.1c6.1,0,11.1-4.9,11.1-11l0,0
		C39.5,14,34.6,9,28.5,9z M34.6,20.1c0,3.6-2.9,6.4-6.5,6.4l-16.5-0.1c-3.6,0-6.5-2.9-6.4-6.5l0,0c0-3.6,2.9-6.4,6.5-6.4l16.5,0.1
		C31.7,13.6,34.6,16.5,34.6,20.1z"/>
	<circle cx="12.9" cy="20" r="2.2"/>
	<circle cx="27.1" cy="20" r="2.2"/>
</g>
</svg>
